<?xml version="1.0" encoding="utf-8"?><!DOCTYPE svg PUBLIC "-//W3C//DTD SVG 1.1//EN" "http://www.w3.org/Graphics/SVG/1.1/DTD/svg11.dtd"><svg version="1.1" id="Layer_1" xmlns="http://www.w3.org/2000/svg" xmlns:xlink="http://www.w3.org/1999/xlink" x="0px" y="0px" width="281.932px" height="24.81px" viewBox="0 0 281.932 24.81" enable-background="new 0 0 281.932 24.81" xml:space="preserve"><path fill="#0065A4" d="M149.793,6.271c0.025,0.58,0.17,1.171,0.074,1.737c-0.133,0.071-0.32,0.133-0.467,0.048 c-0.221-0.284-0.271-0.702-0.666-0.875c-0.662-0.33-1.4-0.504-2.211-0.48c-1.166,0.051-2.434,0.373-2.915,1.562 c-0.109,0.49-0.039,1.094,0.359,1.475c0.639,0.691,1.51,0.835,2.286,1.17c1.779,0.662,4.352,0.969,4.797,3.318 c0.252,1.311-0.41,2.482-1.439,3.318c-2.215,1.625-5.604,1.316-8.151,0.627c-0.188-0.59-0.299-1.217-0.409-1.844 c0.026-0.116,0.038-0.259,0.175-0.284c0.184-0.009,0.442-0.049,0.516,0.185c0.48,1.145,1.73,1.416,2.816,1.61 c0.993,0.183,1.999,0,2.875-0.294c0.785-0.332,1.574-1.093,1.535-2.016c0.014-0.797-0.654-1.526-1.387-1.795 c-1.809-0.896-4.012-0.896-5.518-2.461c-0.629-0.747-0.791-1.867-0.483-2.801c0.483-1.354,1.979-1.945,3.194-2.334 C146.352,5.755,148.281,5.806,149.793,6.271 M187.393,6.712l-0.045,0.027v0.592l0.045,0.047c0.467,0.01,0.961-0.037,1.402,0.035 l0.197,0.148c0.242,0.557,0.232,1.191,0.26,1.771l0.008,5.372c0.043,0.641,0.043,1.23,0.25,1.781c0.586,1.722,2.396,2.4,4.006,2.645 c1.656,0.221,3.379,0.107,4.844-0.469l0.85-0.477c1.166-0.742,1.854-1.921,1.99-3.213l0.012-7.41l0.061-0.086 c0.383-0.135,0.824-0.034,1.242-0.088l0.047-0.047c-0.01-0.195,0.016-0.419-0.037-0.602l-4.262-0.015 c-0.039,0.197-0.039,0.456,0,0.653l1.145,0.023c0.197,0.024,0.402,0.051,0.514,0.259c0.221,0.603,0.172,1.329,0.256,1.93 l0.027,5.226c-0.074,0.516-0.186,1.068-0.432,1.521c-0.49,1.119-1.656,1.625-2.717,1.87c-1.238,0.224-2.654,0.161-3.674-0.504 c-1.094-0.737-1.338-2.013-1.4-3.242V7.6l0.07-0.133c0.412-0.149,0.852-0.025,1.27-0.101c0.045-0.186,0.045-0.465-0.012-0.642 L187.393,6.712z M255.938,9.898c-1.754-0.492-3.898-0.393-5.336,0.727c-0.627,0.517-0.9,1.305-0.738,2.063 c0.336,1.648,2.203,1.868,3.496,2.36c0.6,0.258,1.266,0.393,1.727,0.946c0.221,0.296,0.301,0.699,0.221,1.071 c-0.143,0.737-0.943,1.178-1.592,1.338c-1.232,0.232-2.572,0.074-3.461-0.774c-0.18-0.173-0.18-0.638-0.553-0.503 c-0.096,0.025-0.168,0.101-0.168,0.211c0.113,0.466,0.145,0.957,0.33,1.402c1.771,0.465,4.121,0.697,5.713-0.309 c0.877-0.615,1.504-1.551,1.312-2.633c-0.273-1.559-1.986-2.003-3.26-2.422c-0.824-0.344-2.094-0.501-2.215-1.609 c-0.031-0.477,0.281-0.871,0.664-1.131c0.885-0.492,2.215-0.543,3.098,0c0.395,0.11,0.246,0.689,0.686,0.654 c0.123,0,0.164-0.138,0.201-0.225C256.025,10.673,256.025,10.267,255.938,9.898 M150.309,9.691c-0.207,0.072-0.479,0-0.686,0.061 l-0.443,1.167c-0.062,0.1-0.088,0.246,0.01,0.329c0.492,0.2,0.557-0.501,0.959-0.584c0.871-0.334,1.941-0.383,2.891-0.346 l0.035,0.084V18l-0.062,0.11c-0.467,0.111-0.932,0.036-1.449,0.075c-0.01,0.154-0.01,0.333-0.016,0.488l5.34,0.004 c-0.014-0.156,0.008-0.326-0.014-0.486c-0.459,0-0.943,0.017-1.389-0.029c-0.346-0.103-0.27-0.518-0.369-0.803l-0.012-7.006 l0.035-0.035c1.037-0.037,2.066,0.035,2.951,0.402c0.332,0.1,0.369,0.627,0.775,0.578c0.098,0,0.158-0.094,0.184-0.168l-0.557-1.379 c-0.82-0.085-1.705-0.025-2.562-0.051L150.309,9.691z M175.203,9.738l-7.699-0.012c-0.195,0.037-0.455-0.035-0.613,0.073 l-0.432,1.118c-0.033,0.101-0.107,0.26,0,0.355c0.395,0.188,0.473-0.293,0.752-0.466c0.871-0.44,1.906-0.467,2.938-0.489 c0.076,0,0.17,0,0.188,0.084l0.008,7.524l-0.072,0.22c-0.459,0.109-0.971,0.051-1.465,0.084l0.016,0.469l5.293,0.004 c-0.02-0.182-0.012-0.276-0.006-0.481c-0.48,0-0.998,0-1.465-0.062c-0.258-0.148-0.158-0.467-0.27-0.688l-0.016-7.104l0.049-0.039 c0.555,0.025,1.082-0.01,1.639,0.087c0.49,0.097,0.982,0.138,1.4,0.419c0.268,0.121,0.283,0.531,0.615,0.492 c0.094-0.014,0.182-0.066,0.205-0.161c-0.148-0.481-0.342-0.949-0.537-1.401L175.203,9.738z M184.053,9.75l-7.365-0.012 c-0.072,0.121-0.051,0.334-0.037,0.478c0.357,0.038,0.736,0,1.07,0.065l0.133,0.109c0.236,0.506,0.15,1.154,0.186,1.744v4.721 l-0.01,1.204c-0.176,0.31-0.615,0.13-0.986,0.185c0.008,0.146,0.008,0.301,0.012,0.482l7.98,0.01l0.049-0.037l0.316-0.932 c0.016-0.186,0.176-0.37,0.027-0.54c-0.297-0.126-0.453,0.256-0.664,0.402c-1.264,0.592-2.879,0.517-4.377,0.456 c-0.111-0.062-0.172-0.186-0.207-0.295c-0.172-1.143-0.109-2.557-0.1-3.641l0.035-0.047c1.049-0.024,2.105-0.024,3.088,0.096 c0.404,0.064,0.199,0.543,0.297,0.773c0.172,0.014,0.367,0.04,0.527-0.012c-0.025-0.846,0.062-1.521-0.014-2.431l-0.441-0.026 c-0.037,0-0.1,0.014-0.088,0.062c-0.051,0.261,0.066,0.615-0.158,0.812c-0.971,0.286-2.102,0.148-3.172,0.186l-0.074-0.048 l-0.01-2.979l0.084-0.169c1.215-0.1,2.271-0.014,3.418,0.169c0.268,0.147,0.758,0.128,0.789,0.54 c0.02,0.127,0.156,0.138,0.252,0.149c0.125,0,0.137-0.095,0.203-0.171c0.082-0.43,0.135-0.848,0.17-1.291L184.053,9.75z M204.779,9.812c-1.012-0.037-1.846-0.049-2.867-0.049l-0.111,0.049c-0.016,0.136-0.035,0.355,0.035,0.455 c0.334,0.014,0.652,0.025,0.922,0.162c0.359,0.281,0.547,0.701,0.547,1.144l0.029,6.461l-0.057,0.151 c-0.285,0.109-0.529,0.074-0.91,0.07c0.004,0.173-0.006,0.304-0.012,0.492c1.068,0,2.061,0.012,3.178,0.003 c-0.012-0.167-0.023-0.3-0.021-0.495c-0.354-0.012-0.723,0.039-1.031-0.034c-0.148-0.088-0.197-0.222-0.256-0.36 c-0.213-2.373-0.146-3.711-0.113-6.24h0.035l2.953,2.727l4.699,4.424l0.203,0.125c0.088,0.025,0.201,0.014,0.25-0.073l0.012-8.394 l0.084-0.089c0.299-0.048,0.605-0.022,0.889-0.073c0.008-0.146,0.061-0.355-0.039-0.468c-1.082,0.023-2.027-0.048-3.098,0 c-0.098,0.112-0.072,0.345-0.012,0.481c0.342,0.037,0.783-0.025,1.117,0.121c0.281,0.357,0.17,0.871,0.26,1.318 c0.021,1.226,0.098,2.836,0.049,4.274l-0.049,0.074l-3.186-2.974L204.779,9.812 M213.479,9.799l-0.051,0.023 c0.018,0.161-0.021,0.321,0.027,0.458c0.396,0.049,0.84-0.065,1.156,0.148c0.182,0.317,0.199,0.748,0.225,1.152l0.008,6.011 l-0.008,0.541c-0.211,0.222-0.656,0.11-0.938,0.147c-0.004,0.17-0.025,0.361-0.014,0.49l4.371,0.025 c0.012-0.146,0.016-0.309,0.004-0.465c-0.084-0.063-1.047,0.062-1.252-0.246c-0.113-0.37-0.139-0.789-0.145-1.195l-0.016-6.391 c0.16-0.355,0.672-0.098,0.994-0.219c0.018-0.147,0.039-0.355-0.037-0.469L213.479,9.799z M222.416,9.837 c-1.363-0.025-2.789,0-4.156-0.025c-0.111,0.073-0.037,0.246-0.049,0.37c-0.025,0.194,0.234,0.11,0.383,0.136 c0.811-0.051,0.992,0.859,1.354,1.362l3.66,7.192l0.162,0.219c0.109,0.061,0.244,0.014,0.318-0.07l3.883-7.891l0.393-0.74 c0.26-0.123,0.607-0.023,0.875-0.098c-0.025-0.185,0.072-0.285-0.025-0.455l-3.182-0.016c-0.102,0.115-0.076,0.36-0.025,0.496 c0.354,0.035,0.723-0.025,1.07,0.035c0.07,0.023,0.184,0.076,0.184,0.158c-0.047,0.469-0.219,0.874-0.398,1.293l-2.209,4.435 l-0.098,0.099l-0.051-0.036l-2.998-5.749c-0.035-0.053-0.051-0.162,0.025-0.199c0.258-0.072,0.568-0.025,0.848-0.035 C222.477,10.215,222.451,9.96,222.416,9.837 M230.01,9.822l-0.119,0.027c-0.012,0.146-0.049,0.344,0.023,0.479 c0.355,0.038,0.703-0.035,1.033,0.062c0.311,0.121,0.209,0.506,0.32,0.763l0.035,6.879c-0.059,0.485-0.65,0.228-0.996,0.3 c-0.006,0.165-0.012,0.305,0.006,0.479l7.848,0.023l0.137-0.026l0.348-0.961c0.02-0.17,0.131-0.365,0.008-0.525 c-0.438-0.095-0.59,0.494-0.994,0.556c-1.035,0.366-2.211,0.341-3.391,0.353c-0.295-0.046-0.738,0.09-0.826-0.304 c-0.205-1.218-0.1-2.692-0.146-3.616l0.047-0.111l0.705-0.021c0.783,0.086,1.732-0.062,2.494,0.17 c0.271,0.136,0.082,0.529,0.182,0.714c0.16,0.013,0.375,0.036,0.531-0.013v-2.396c-0.137-0.087-0.381-0.061-0.553-0.023 c-0.049,0.307,0.072,0.701-0.221,0.871c-0.963,0.221-2.055,0.11-3.102,0.146l-0.07-0.059l-0.014-2.977 c0.039-0.059,0.039-0.145,0.123-0.145c1.289-0.028,2.691-0.09,3.85,0.33c0.285,0.036,0.229,0.368,0.412,0.494 c0.092,0.035,0.262,0.057,0.312-0.077c0.08-0.442,0.184-0.886,0.209-1.34L230.01,9.822z M256.873,9.898 c-0.053,0.146-0.033,0.332-0.014,0.492c0.416,0.057,0.971-0.109,1.256,0.258c0.123,0.455,0.107,0.983,0.123,1.486l0.039,5.41 l-0.039,0.686c-0.201,0.271-0.654,0.09-0.973,0.162c-0.002,0.195,0.002,0.311,0.01,0.49l4.354,0.014l0.051-0.023l-0.012-0.469 c-0.398-0.035-0.848,0.047-1.182-0.123c-0.189-0.403-0.209-0.959-0.209-1.35l-0.012-6.32c0.158-0.369,0.688-0.1,0.998-0.245 c0-0.15,0.021-0.321-0.027-0.454L256.873,9.898z M267.385,9.925l-4.701-0.027c-0.207,0.05-0.449-0.024-0.633,0.062 c-0.164,0.478-0.41,0.908-0.469,1.425c0.441,0.38,0.566-0.405,0.973-0.505c0.857-0.342,1.836-0.367,2.861-0.367l0.035,0.047 l0.049,7.17c-0.016,0.222,0.023,0.43-0.084,0.627c-0.451,0.084-0.973,0.012-1.438,0.047c-0.016,0.16-0.039,0.344,0.014,0.492 l5.273,0.014c0.004-0.152,0.004-0.306,0-0.469c-0.457-0.072-0.961,0-1.404-0.058c-0.354-0.128-0.232-0.58-0.346-0.839l-0.023-6.972 l0.023-0.034c0.59-0.025,1.197,0.014,1.77,0.086c0.457,0.096,0.949,0.122,1.316,0.431c0.26,0.147,0.281,0.526,0.652,0.452 c0.088-0.021,0.135-0.122,0.135-0.194c-0.143-0.458-0.357-0.911-0.539-1.34l-0.035-0.025L267.385,9.925z M271.623,9.925 l-0.072,0.049c-0.012,0.159-0.012,0.279,0.025,0.455c0.242,0.037,0.514,0,0.748,0.037c0.26,0.069,0.404,0.354,0.586,0.528 l2.795,4.079l0.018,3.147l-0.059,0.147c-0.281,0.107-0.623,0.023-0.932,0.072c0,0.167,0.016,0.325,0.01,0.48l4.367-0.004 c0.018-0.151-0.01-0.24,0-0.477c-0.328-0.012-0.68,0.025-1-0.037c-0.336-0.123-0.254-0.557-0.352-0.837l-0.012-2.581l2.57-3.893 l0.418-0.541c0.24-0.074,0.506-0.114,0.77-0.086c0.074-0.137,0.041-0.333,0.025-0.492c-1.094-0.014-2.012-0.049-3.123-0.026 l-0.07,0.035c0,0.161-0.025,0.335,0.023,0.455c0.367,0.05,0.787-0.023,1.145,0.062c0.133,0.086,0.031,0.247,0.016,0.355 c-0.568,1.182-1.307,2.305-2.061,3.408h-0.043c-0.812-1.168-1.615-2.348-2.389-3.525c0-0.09-0.135-0.165-0.049-0.26l0.914-0.04 c0.07-0.12,0.033-0.33,0.021-0.478L271.623,9.925z M242.281,14.199c1.033,0,2.164,0.078,2.811-0.809 c0.346-0.503,0.264-1.252,0.02-1.783c-0.57-0.934-1.609-1.192-2.695-1.129c-0.049,0.025-0.113,0.025-0.15,0.082 C242.256,11.867,242.232,12.987,242.281,14.199 M248.98,18.369c0.074,0.135,0.037,0.33,0.02,0.466 c-0.807,0.052-1.654,0.038-2.469,0.013c-0.451-0.037-0.748-0.553-1.051-0.848c-0.824-1.022-1.492-2.15-2.264-3.232 c-0.311-0.014-0.643-0.037-0.936,0.011c-0.049,0.886-0.025,1.819-0.016,2.719c0.066,0.28,0.016,0.675,0.322,0.81 c0.334,0.062,0.725,0.016,1.051,0.054c0.004,0.226,0.004,0.311,0.02,0.48l-4.402-0.006c0.002-0.118-0.021-0.331-0.021-0.478 c0.27-0.076,0.662,0.026,0.934-0.102l0.059-0.304l-0.023-6.566c-0.084-0.255,0.039-0.812-0.346-0.983 c-0.303-0.084-0.688-0.012-1.02-0.061c-0.072-0.126-0.039-0.32-0.025-0.456l0.098-0.045c1.982,0.107,4.039-0.114,5.953,0.134 c1.064,0.208,2.242,0.846,2.482,2.016c0.135,0.773-0.209,1.498-0.814,1.941c-0.451,0.309-0.99,0.416-1.5,0.564l0.061,0.135 c0.9,1.072,1.676,2.26,2.693,3.217C248.107,18.171,248.504,18.383,248.98,18.369 M162.381,11.72 c0.467,1.006,0.871,2.049,1.291,3.096c-0.934,0.049-1.953,0.021-2.887,0.012v-0.074C161.287,13.72,161.777,12.677,162.381,11.72 M164.186,9.589c-0.023-0.121-0.143-0.121-0.244-0.135c-0.43,0.087-0.9,0.125-1.318,0.246l-0.303,0.592l-2.09,4.031l-1.809,3.603 c-0.172,0.405-0.65,0.207-0.98,0.281c-0.016,0.147,0.014,0.307,0.01,0.478c1.145,0.014,2.301,0.012,3.465-0.012 c-0.002-0.159-0.002-0.314-0.01-0.466l-0.852-0.022c-0.193-0.039-0.514,0.045-0.561-0.233c0.119-0.878,0.551-1.614,0.881-2.388 l0.1-0.123h3.488l0.08,0.064l0.996,2.342l0.023,0.263c-0.311,0.12-0.639,0.087-0.973,0.098c-0.012,0.169,0.004,0.337-0.012,0.491 c1.336,0.016,2.842,0.004,4.273-0.014c-0.002-0.147-0.018-0.345-0.01-0.464l-0.711-0.05c-0.469-0.22-0.652-0.752-0.863-1.18 l-2.508-5.693l-0.367-1.055C163.744,9.925,164.271,9.874,164.186,9.589 M39.773,6.658c-1.141-0.439-2.398-0.597-3.688-0.686 c-3.384-0.07-6.55,0.617-8.782,3.235c-1.312,1.642-1.457,4.054-0.687,5.952c1.217,2.742,4.199,3.736,7.052,3.757 c1.749,0.007,3.335-0.354,4.937-0.69c0.484-0.168,1.022-0.196,1.424-0.541c0.062-0.1,0.041-0.207,0.012-0.306 c-0.195-0.207-0.268-0.495-0.287-0.749l-0.018-2.91l0.059-0.076c0.385-0.128,0.848-0.04,1.279-0.07l0.039-0.029 c0-0.227,0.01-0.365-0.012-0.619l-0.027-0.02l-6.129,0.011c-0.008,0.204-0.039,0.448,0.021,0.646c0.568,0,1.111-0.01,1.653,0.061 c0.245,0.07,0.323,0.324,0.366,0.53c0.135,1.132,0.096,2.166,0.111,3.464l-0.027,0.059c-0.865,0.334-1.828,0.473-2.841,0.421 c-2.177-0.055-4.286-1.466-4.989-3.538c-0.471-1.419-0.528-3.03,0.05-4.477c0.868-2.084,3.04-3.03,5.085-3.266 c1.488-0.117,2.961,0.029,4.129,0.799c0.445,0.148,0.15,0.658,0.523,0.816c0.108,0.037,0.254,0.028,0.344-0.05 C39.627,7.859,39.689,7.26,39.773,6.658 M89.057,6.328l-5.655-0.014c0,0.275,0.02,0.411,0,0.658 c0.494,0.051,1.057-0.076,1.401,0.337c0.773,1.12,1.336,2.36,1.958,3.56l1.608,3.18l2.354,4.6c0.073,0.167,0.207,0.373,0.418,0.355 c0.121,0,0.189-0.107,0.25-0.197l2.093-4.238l3.38-7.004c0.107-0.188,0.188-0.422,0.375-0.553c0.376-0.01,0.898-0.002,1.127-0.018 c0-0.227,0.008-0.439-0.018-0.648c-1.447,0.01-2.955-0.018-4.372,0l-0.038,0.02c0.008,0.212-0.002,0.451-0.002,0.629 c0,0,1.457-0.187,1.748,0.124c0.025,0.521-3.666,8.206-3.666,8.206l-0.043,0.01c-0.912-1.625-1.693-3.294-2.553-4.945 c0,0-1.825-3.33-1.572-3.377c0.518-0.089,1.238-0.047,1.238-0.047v-0.6L89.057,6.328z M111.55,9.607c0,0.145-0.01,0.343-0.01,0.465 c0,0.059,0.285-0.018,0.443,0.031c0.257,0.027,0.543-0.029,0.738,0.146c0.254,0.521,0.123,1.198,0.197,1.799l0.02,5.589 c-0.039,0.134,0.047,0.333-0.068,0.468c-0.266,0.109-0.628,0.035-0.929,0.072c0.003,0.178,0.003,0.338,0.003,0.484l7.988,0.025 l0.059-0.039l0.295-0.824c0.025-0.209,0.195-0.427,0.077-0.639c-0.108-0.062-0.228-0.041-0.325,0.027 c-0.266,0.412-0.709,0.53-1.121,0.668c-1.103,0.225-2.301,0.209-3.461,0.209l-0.168-0.041c-0.107-0.069-0.188-0.197-0.225-0.313 c-0.068-0.581-0.119-1.19-0.119-1.81l-0.01-5.656l0.061-0.088c0.273-0.117,0.588-0.073,0.921-0.078c0-0.18-0.009-0.28-0.009-0.484 L111.55,9.607z M121.427,9.626l-1.23-0.008l-0.076,0.041c-0.014,0.148-0.045,0.323,0.016,0.462c0.346,0.028,0.73-0.032,1.057,0.04 c0.078,0.038,0.153,0.116,0.206,0.196c0.146,0.479,0.087,1.147,0.136,1.575l0.01,6.064l-0.059,0.129 c-0.275,0.117-0.637,0.021-0.945,0.088l0.012,0.463l7.887,0.031l0.158-0.021l0.352-0.952c0.02-0.178,0.158-0.386,0.011-0.551 c-0.306-0.129-0.413,0.255-0.63,0.393c-0.756,0.444-1.692,0.462-2.607,0.528c-0.579-0.009-1.227,0.031-1.818-0.035 c-0.129-0.061-0.176-0.191-0.223-0.327c-0.178-1.123-0.092-2.419-0.118-3.638l0.048-0.049c0.824-0.008,1.627,0.019,2.448,0.03 c0.296,0.048,0.618,0.028,0.864,0.196c0.101,0.186,0.064,0.488,0.082,0.653c0,0,0.332,0.014,0.53-0.005v-2.504 c-0.187-0.004-0.336,0.023-0.501,0.016c-0.092,0.111-0.033,0.197-0.047,0.294c-0.045,0.226,0.062,0.551-0.221,0.649 c-0.974,0.197-2.064,0.111-3.109,0.128l-0.076-0.028l-0.019-3.148c0.147-0.199,0.47-0.098,0.703-0.127 c1.202,0.029,2.441-0.021,3.454,0.453c0.107,0.086,0.129,0.214,0.168,0.343c0.037,0.108,0.157,0.13,0.273,0.117 c0.092-0.018,0.119-0.117,0.158-0.177c0.072-0.433,0.156-0.857,0.188-1.287l-0.796-0.01L121.427,9.626z M128.568,9.638 c0,0,0.008,0.32,0.008,0.492l0.807,0.031c0.217,0.096,0.373,0.314,0.542,0.502c0.983,1.385,1.858,2.822,2.825,4.198l0.014,3.058 c-0.014,0.513-0.659,0.274-1.009,0.316c0,0,0.011,0.348,0.011,0.451l4.441,0.021c0.013-0.146,0.02-0.305,0.008-0.477 c-0.332-0.025-0.744,0.033-1.069-0.047c-0.36-0.115-0.233-0.608-0.343-0.866l-0.01-2.533l0.247-0.378l2.533-3.922 c0.2-0.422,0.669-0.355,1.026-0.346c0.012-0.148,0-0.267-0.009-0.462l-3.165-0.026c0,0,0,0.3,0,0.492l1.119,0.046l0.088,0.067 c0.031,0.07,0,0.188-0.031,0.257c-0.56,1.229-1.326,2.371-2.072,3.521l-0.059,0.04l-0.188-0.235l-1.931-2.932 c-0.128-0.226-0.302-0.372-0.352-0.718c0.304-0.068,0.61-0.06,0.97-0.05l0.01-0.488L128.568,9.638z M43.638,13.958 c1.103,0.037,2.271,0.01,2.934-0.926c0.295-0.552,0.213-1.258-0.062-1.791c-0.57-0.95-2.916-1.092-2.929-0.992L43.638,13.958 M49.599,17.833c0.246,0.196,0.573,0.196,0.885,0.236c-0.008,0.148-0.008,0.334-0.016,0.492l-2.432-0.021l-0.396-0.101 c-0.942-0.902-1.65-2.007-2.38-3.028l-0.637-0.944h-0.977c0,0-0.035,1.81,0.02,2.871c0.061,0.246,0.041,0.594,0.326,0.69 c0.307,0.06,0.729,0.022,1.074,0.029c0.062,0.13,0,0.482,0,0.482h-4.467c-0.062-0.13-0.041-0.334-0.027-0.472 c0.3-0.038,0.715,0.037,0.952-0.082l0.058-0.154c0.021-0.415-0.039-5.922-0.039-5.922c-0.051-0.532,0.01-1.162-0.146-1.672 c-0.197-0.354-0.648-0.225-1.014-0.256h-0.26c-0.01-0.148,0.011-0.307,0.008-0.483l5.16,0.012c1.309,0.078,2.639,0.433,3.315,1.652 c0.323,0.669,0.214,1.532-0.249,2.105c-0.52,0.639-1.236,0.755-1.945,0.942C47.416,15.46,48.341,16.742,49.599,17.833 M80.087,17.184c0.947-0.572,1.418-1.565,1.465-2.598c0.032-1.091-0.295-2.065-0.91-2.872c-0.984-1.2-2.413-1.593-3.955-1.576 c-0.166,0.052-0.462-0.074-0.5,0.169l0.025,6.126c0.023,0.473,0.053,0.924,0.158,1.37c0.078,0.106,0.169,0.176,0.305,0.185 C77.937,18.009,79.097,17.803,80.087,17.184 M83.386,12.243c0.413,0.985,0.473,2.204,0.078,3.218 c-0.424,1.258-1.734,2.418-2.99,2.754c-1.064,0.355-2.254,0.402-3.482,0.386l-3.808-0.019c0.015-0.155,0.015-0.447,0.015-0.447 c0.328-0.024,0.854,0.141,0.979-0.256l-0.02-5.889c-0.06-0.593,0.051-1.161-0.137-1.712c-0.098-0.295-0.433-0.204-0.668-0.257 h-0.629c0-0.222,0-0.222,0.01-0.472l5.279-0.009l1.479,0.129C81.054,9.885,82.644,10.71,83.386,12.243 M54.007,14.705 c0.963,0.02,1.968,0.029,2.92-0.011c-0.422-1.08-0.884-2.144-1.356-3.206c-0.589,1.004-1.054,2.086-1.563,3.139V14.705 M72.617,9.533c0.022,0.146,0,0.49,0,0.49c-0.326-0.021-0.683-0.062-0.957,0.059c-0.135,0.062-0.021,8.488-0.021,8.488 c-0.019,0.068-0.056,0.127-0.135,0.147c-0.119,0.03-0.197-0.06-0.299-0.087l-0.971-0.918l-4.168-3.896 c-0.847-0.755-1.761-1.698-2.676-2.487l-0.031,0.041l0.031,5.063l0.127,1.241c0.037,0.139,0.1,0.264,0.225,0.354 c0.326,0.106,0.739,0.028,1.091,0.066c0.04,0.14,0.04,0.326,0,0.474h-7.472l-0.062-0.028c-0.016-0.13-0.016-0.306,0-0.445 c0.329-0.055,0.713,0.022,1.016-0.066c0.052-0.051,0.059-0.118,0.031-0.168c-0.326-0.847-0.709-1.671-1.062-2.511l-0.06-0.037 l-3.57,0.01c-0.364,0.816-0.809,1.596-0.946,2.5c0.014,0.078,0.084,0.146,0.138,0.186c0.425,0.109,0.847,0.049,1.29,0.061 c0.039,0.145,0.018,0.324,0.008,0.472c-1.117,0.059-2.268,0-3.471,0c-0.068-0.158,0-0.298-0.007-0.452 c0.36-0.09,0.94,0.118,1.039-0.404l2.087-4.16l2.035-4.013c0.396-0.159,0.863-0.167,1.299-0.257c0.088,0,0.169-0.008,0.236,0.049 c0.207,0.297-0.315,0.355-0.285,0.641c0.402,1.238,0.963,2.42,1.464,3.617l1.507,3.316c0.273,0.471,0.479,1.307,1.24,1.191 c0.42-0.012,0.854,0.026,1.248-0.028c0.048-0.032,0.088-0.071,0.088-0.12l-0.01-4.289c-0.051-0.826,0.037-1.984-0.119-2.795 c-0.117-0.323-0.313-0.668-0.68-0.773c-0.233-0.062-0.502-0.049-0.758-0.062V9.541c1.017-0.049,1.939,0.022,2.971,0l3.896,3.658 l2.91,2.706l0.051-0.058l-0.029-4.072c-0.061-0.482-0.061-1.084-0.217-1.564c-0.098-0.266-0.752-0.189-1.268-0.189v-0.49 L72.617,9.533 M98.599,14.763c-1.016,0.049-1.889,0.02-2.914,0c0.465-1.07,0.994-2.125,1.544-3.166l0.04-0.032 C97.732,12.629,98.196,13.693,98.599,14.763 M99.06,9.363c-0.068-0.059-0.156-0.051-0.246-0.051c-0.43,0.082-0.873,0.129-1.289,0.26 l-2.263,4.453l-1.876,3.746c-0.139,0.482-0.648,0.314-1.012,0.379v0.467c0.006,0,3.473-0.017,3.473-0.017 c-0.012-0.149-0.005-0.245-0.005-0.454c-0.459-0.012-0.923,0.039-1.313-0.078c-0.218-0.118-0.08-0.373-0.07-0.559 c0.236-0.739,0.561-1.447,0.914-2.125h3.502l0.076,0.048c0.367,0.837,0.741,1.681,1.064,2.547l-0.021,0.11 c-0.295,0.096-0.655,0.037-0.992,0.057l-0.051,0.03V18.6l0.041,0.038l12.344,0.018c0.154-0.334,0.274-0.686,0.396-1.041 c0-0.155,0.144-0.322,0.007-0.461c-0.098-0.049-0.227-0.012-0.312,0.03c-0.158,0.275-0.433,0.423-0.689,0.528 c-1.162,0.405-2.518,0.365-3.846,0.355l-0.229-0.04c-0.343-0.315-0.202-0.835-0.305-1.258l-0.038-6.463l0.05-0.146 c0.244-0.128,0.917-0.08,0.917-0.08s0.009-0.208,0.009-0.475l-4.405,0.02v0.455c0.23,0.024,1.187-0.088,1.286,0.244 c0.078,0.405,0.14,0.811,0.123,1.239l0.017,6.187c0,0.1,0.028,0.276-0.085,0.345c-0.418,0.111-0.941,0.05-1.383,0.05 c-0.633,0.079-0.835-0.62-1.061-1.033l-1.576-3.49l-0.626-1.475c-0.281-0.721-0.659-1.398-0.809-2.174 c0-0.166,0.198-0.268,0.296-0.375C99.126,9.533,99.112,9.421,99.06,9.363 M21.193,3.821L21.193,3.821 c-1.82-1.84-3.945-3.026-6.328-3.548c-2.92-0.646-6.033-0.109-8.455,1.252c-2.768,1.52-5.025,4.355-5.865,7.25 c-0.818,2.525-0.717,5.771,0.322,8.17c0.125,0.435,0.354,0.822,0.518,1.237c1.38,2.735,4.137,5.132,6.973,6.009 c3.131,1.118,7.096,0.671,9.852-0.941c2.506-1.285,4.592-3.807,5.564-6.328c0.366-0.924,0.597-1.896,0.753-2.904 c0.306-2.229-0.126-4.982-1.791-7.477c-4.583-0.005-11.749-0.005-11.749-0.005H7.314C6.44,6.597,5.65,7.058,5.154,7.809 C4.621,8.585,4.589,9.855,5.089,10.66c0.918,1.344,1.873,2.674,2.816,4.012l2.027,2.861c0.176,0.248,0.354,0.501,0.53,0.742 l1.617,2.258c0.077,0.08,0.157,0.236,0.29,0.18c0.439-0.492,0.807-1.038,1.195-1.563l1.465-1.982 c0.787-1.049,1.552-2.101,2.328-3.149c0,0,1.336-1.861,2.17-3.064l-3.627-0.004c-0.301,0.334-0.529,0.604-0.75,0.875l-1.521,2.061 l-1.093,1.473c-0.079,0.088-0.153,0.229-0.279,0.234c-0.214-0.223-0.368-0.479-0.554-0.72l-2.47-3.483l-0.821-1.173l-0.047-0.12 c0.014-0.037,0.031-0.088,0.078-0.09h2.516l6.218,0.02h2.44c0.372,0.033,0.793-0.018,1.139,0.057c0.06,0.037,0.107,0.1,0.125,0.158 c0.426,1.587,0.332,3.561-0.222,5.061c-0.738,2.412-3.006,4.688-5.39,5.51c-1.811,0.713-4.295,0.725-6.113-0.008 c-2.445-0.846-4.651-3.239-5.312-5.711c-0.656-2.04-0.461-4.58,0.477-6.426C5.245,6.614,7.266,4.76,9.365,4.064 c2.641-1.025,5.918-0.475,8.123,1.107c0.25,0.16,0.448,0.294,0.721,0.501l4.342,0.006C22.099,4.903,21.699,4.365,21.193,3.821 L21.193,3.821z M280.201,20.251h0.15v-1.023h0.352v-0.125h-0.852v0.125h0.35V20.251z M281.785,20.251h0.146l-0.07-1.148h-0.191 l-0.205,0.556c-0.049,0.144-0.09,0.271-0.123,0.385h-0.002c-0.029-0.118-0.068-0.244-0.117-0.385l-0.193-0.556h-0.191l-0.078,1.148 h0.141l0.029-0.492c0.012-0.175,0.02-0.366,0.023-0.509h0.002c0.033,0.136,0.078,0.283,0.133,0.445l0.188,0.549h0.111l0.205-0.559 c0.055-0.158,0.102-0.302,0.143-0.436h0.004c0,0.142,0.01,0.335,0.02,0.494L281.785,20.251z"/></svg>